#!OML:ASF G:\JayActor3\Patient Classification 1\Patient 1\Session 6\male.ASF
:FULLY-SPECIFIED
:DEGREES
718
root 7.41627 15.6669 -24.6523 206.61 -86.5775 -200.122
lowerback 17.2019 -1.90472 2.63045
upperback 8.36251 -2.63596 3.63234
thorax -0.623416 -1.57776 2.7985
lowerneck 9.91381 -9.98056 -0.177101
upperneck -10.8837 -14.3634 -4.7589
head -5.24101 -6.81747 -0.345915
rclavicle 2.46493e-014 -1.74931e-014
rhumerus 0.21051 -7.42315 -79.8244
rradius 77.9209
rwrist 30.515
rhand -57.4924 -10.4987
rfingers 7.12502
rthumb -29.7615 -38.1289
lclavicle 2.46493e-014 -1.74931e-014
lhumerus -12.196 -8.91284 89.0111
lradius 94.3081
lwrist 40.5203
lhand -25.0839 10.0677
lfingers 7.12502
lthumb 1.4305 40.0426
rfemur -40.1876 1.78093 19.0007
rtibia 55.5426
rfoot -22.9325 -7.88426
rtoes 0.0772901
lfemur -34.048 1.8106 -26.1945
ltibia 44.0968
lfoot -17.3615 -2.24341
ltoes 0.50829
719
root 7.41549 15.6604 -24.6547 207.116 -86.5427 -200.592
lowerback 17.2748 -1.89595 2.63697
upperback 8.37516 -2.62299 3.648
thorax -0.647363 -1.57277 2.81237
lowerneck 9.90248 -9.9886 -0.175864
upperneck -10.9537 -14.3733 -4.71059
head -5.2575 -6.8242 -0.32943
rclavicle -3.89618e-014 6.36111e-015
rhumerus 0.256721 -7.50085 -79.8954
rradius 78.0152
rwrist 30.6266
rhand -57.4175 -10.4479
rfingers 7.12502
rthumb -29.69 -38.0909
lclavicle -3.89618e-014 6.36111e-015
lhumerus -12.1959 -8.96453 89.0799
lradius 94.2979
lwrist 40.5638
lhand -25.0669 10.0709
lfingers 7.12502
lthumb 1.44691 40.0457
rfemur -40.3112 1.75722 18.9761
rtibia 55.6778
rfoot -22.9193 -7.85665
rtoes 0.20124
lfemur -34.1738 1.79776 -26.2321
ltibia 44.247
lfoot -17.3753 -2.17816
ltoes 0.503739
720
root 7.41458 15.654 -24.6571 207.606 -86.5115 -201.039
lowerback 17.3439 -1.88801 2.64543
upperback 8.38257 -2.61019 3.6655
thorax -0.674884 -1.56765 2.82709
lowerneck 9.8871 -9.9946 -0.166762
upperneck -11.0186 -14.3816 -4.67917
head -5.2736 -6.82963 -0.319515
rclavicle -4.77083e-015 2.3059e-014
rhumerus 0.295144 -7.58432 -79.9627
rradius 78.1217
rwrist 30.7447
rhand -57.3512 -10.3958
rfingers 7.12502
rthumb -29.6267 -38.05
lclavicle -4.77083e-015 2.3059e-014
lhumerus -12.2037 -9.01515 89.1498
lradius 94.2942
lwrist 40.5881
lhand -25.0446 10.0758
lfingers 7.12502
lthumb 1.46854 40.0505
rfemur -40.4401 1.73284 18.9532
rtibia 55.8127
rfoot -22.9107 -7.83045
rtoes 0.338159
lfemur -34.3048 1.78467 -26.2675
ltibia 44.3967
lfoot -17.3941 -2.11546
ltoes 0.488898
721
root 7.41336 15.6478 -24.6597 207.998 -86.4858 -201.383
lowerback 17.4014 -1.88052 2.65771
upperback 8.38848 -2.59764 3.68668
thorax -0.697895 -1.56253 2.84305
lowerneck 9.86914 -10.0001 -0.17282
upperneck -11.0786 -14.3891 -4.63576
head -5.28573 -6.83507 -0.304308
rclavicle -3.10104e-014 2.14687e-014
rhumerus 0.330361 -7.66758 -80.0238
rradius 78.2428
rwrist 30.8662
rhand -57.3169 -10.3762
rfingers 7.12502
rthumb -29.594 -38.0363
lclavicle -3.10104e-014 2.14687e-014
lhumerus -12.2102 -9.06325 89.2207
lradius 94.2952
lwrist 40.5963
lhand -25.0236 10.0863
lfingers 7.12502
lthumb 1.48874 40.0608
rfemur -40.573 1.70849 18.939
rtibia 55.9448
rfoot -22.9091 -7.80962
rtoes 0.460163
lfemur -34.4407 1.77388 -26.2942
ltibia 44.5447
lfoot -17.4166 -2.06432
ltoes 0.491746
722
root 7.41176 15.6418 -24.6624 208.368 -86.4611 -201.7
lowerback 17.4447 -1.87298 2.66581
upperback 8.39362 -2.58601 3.70922
thorax -0.714207 -1.55787 2.86229
lowerneck 9.85332 -10.0035 -0.178872
upperneck -11.1358 -14.394 -4.59546
head -5.2975 -6.83907 -0.290198
rclavicle 3.26007e-014 -2.38542e-015
rhumerus 0.359451 -7.74419 -80.0795
rradius 78.3782
rwrist 30.9773
rhand -57.3132 -10.3492
rfingers 7.12502
rthumb -29.5904 -38.0098
lclavicle 3.26007e-014 -2.38542e-015
lhumerus -12.2117 -9.10362 89.2924
lradius 94.2932
lwrist 40.5932
lhand -24.9982 10.0965
lfingers 7.12502
lthumb 1.51331 40.0709
rfemur -40.7076 1.68508 18.9268
rtibia 56.0731
rfoot -22.9168 -7.79027
rtoes 0.562888
lfemur -34.5771 1.76779 -26.3192
ltibia 44.6891
lfoot -17.4415 -2.02186
ltoes 0.495577
723
root 7.4097 15.6359 -24.6651 208.729 -86.4379 -202.011
lowerback 17.4806 -1.86511 2.67347
upperback 8.39952 -2.57437 3.73073
thorax -0.72587 -1.55314 2.88031
lowerneck 9.83655 -10.0078 -0.171831
upperneck -11.193 -14.3997 -4.56641
head -5.31093 -6.84329 -0.281216
rclavicle -1.59028e-014 5.56597e-015
rhumerus 0.383872 -7.8202 -80.1315
rradius 78.5237
rwrist 31.0857
rhand -57.3629 -10.3609
rfingers 7.12502
rthumb -29.638 -38.0131
lclavicle -1.59028e-014 5.56597e-015
lhumerus -12.2149 -9.14239 89.3615
lradius 94.299
lwrist 40.5939
lhand -24.9728 10.112
lfingers 7.12502
lthumb 1.53785 40.0863
rfemur -40.837 1.66134 18.9153
rtibia 56.1975
rfoot -22.9341 -7.77224
rtoes 0.638078
lfemur -34.708 1.76533 -26.3433
ltibia 44.83
lfoot -17.4682 -1.98995
ltoes 0.51772
724
root 7.40718 15.6302 -24.668 209.099 -86.4142 -202.335
lowerback 17.5085 -1.85631 2.67492
upperback 8.40999 -2.56335 3.75169
thorax -0.728338 -1.54899 2.90083
lowerneck 9.82616 -10.0123 -0.177127
upperneck -11.2548 -14.4053 -4.52011
head -5.32466 -6.84777 -0.264936
rclavicle -9.54166e-015 -7.95139e-015
rhumerus 0.408571 -7.89701 -80.1796
rradius 78.6792
rwrist 31.2057
rhand -57.4292 -10.3741
rfingers 7.12502
rthumb -29.7012 -38.0151
lclavicle -9.54166e-015 -7.95139e-015
lhumerus -12.2123 -9.17452 89.4288
lradius 94.3076
lwrist 40.6091
lhand -24.9465 10.1254
lfingers 7.12502
lthumb 1.5632 40.0994
rfemur -40.9564 1.63923 18.9032
rtibia 56.319
rfoot -22.9572 -7.75899
rtoes 0.674149
lfemur -34.8286 1.76906 -26.3688
ltibia 44.9674
lfoot -17.4928 -1.96708
ltoes 0.557731
725
root 7.40437 15.6245 -24.6709 209.489 -86.3912 -202.685
lowerback 17.5365 -1.8483 2.67401
upperback 8.41892 -2.55346 3.76978
thorax -0.732533 -1.54529 2.91988
lowerneck 9.82962 -10.0173 -0.176507
upperneck -11.3198 -14.4109 -4.47541
head -5.34222 -6.85186 -0.249087
rclavicle 2.38542e-015 3.4191e-014
rhumerus 0.424473 -7.97588 -80.2263
rradius 78.8402
rwrist 31.3302
rhand -57.4955 -10.3859
rfingers 7.12502
rthumb -29.7645 -38.0155
lclavicle 2.38542e-015 3.4191e-014
lhumerus -12.218 -9.20232 89.4945
lradius 94.3239
lwrist 40.6439
lhand -24.926 10.1424
lfingers 7.12502
lthumb 1.583 40.1163
rfemur -41.0657 1.61832 18.8889
rtibia 56.4392
rfoot -22.9847 -7.7461
rtoes 0.691705
lfemur -34.9399 1.77744 -26.3968
ltibia 45.103
lfoot -17.5143 -1.95166
ltoes 0.618136
726
root 7.40132 15.6189 -24.6737 209.887 -86.3721 -203.047
lowerback 17.5623 -1.84198 2.67401
upperback 8.42739 -2.54563 3.78643
thorax -0.736076 -1.54251 2.93716
lowerneck 9.83174 -10.0242 -0.159174
upperneck -11.3841 -14.4194 -4.44721
head -5.36187 -6.85701 -0.240296
rclavicle -4.13472e-014 3.65764e-014
rhumerus 0.437836 -8.05717 -80.2713
rradius 79.0034
rwrist 31.4584
rhand -57.5841 -10.4524
rfingers 7.12502
rthumb -29.8491 -38.0669
lclavicle -4.13472e-014 3.65764e-014
lhumerus -12.2268 -9.22769 89.5569
lradius 94.3469
lwrist 40.7043
lhand -24.9108 10.1604
lfingers 7.12502
lthumb 1.59771 40.1342
rfemur -41.1682 1.59744 18.8753
rtibia 56.5592
rfoot -23.012 -7.73702
rtoes 0.700978
lfemur -35.0467 1.78661 -26.4247
ltibia 45.2383
lfoot -17.528 -1.9438
ltoes 0.700984
727
root 7.39821 15.6132 -24.6763 210.252 -86.3564 -203.376
lowerback 17.5881 -1.83798 2.6782
upperback 8.43433 -2.53997 3.80133
thorax -0.741477 -1.54058 2.95067
lowerneck 9.83109 -10.0318 -0.14534
upperneck -11.4434 -14.4275 -4.41247
head -5.37873 -6.86247 -0.229438
rclavicle -4.29375e-014 4.21423e-014
rhumerus 0.448158 -8.13854 -80.3181
rradius 79.1684
rwrist 31.5844
rhand -57.7019 -10.5789
rfingers 7.12502
rthumb -29.9615 -38.1731
lclavicle -4.29375e-014 4.21423e-014
lhumerus -12.2334 -9.24714 89.6163
lradius 94.3706
lwrist 40.7857
lhand -24.8977 10.1771
lfingers 7.12502
lthumb 1.61033 40.1508
rfemur -41.2684 1.57832 18.8641
rtibia 56.6798
rfoot -23.038 -7.72941
rtoes 0.714843
lfemur -35.1534 1.7974 -26.4507
ltibia 45.3742
lfoot -17.533 -1.94307
ltoes 0.808067
728
root 7.39507 15.6075 -24.6787 210.627 -86.3449 -203.716
lowerback 17.6172 -1.83675 2.68953
upperback 8.43675 -2.53605 3.81323
thorax -0.753754 -1.53906 2.95755
lowerneck 9.81855 -10.0415 -0.128294
upperneck -11.4883 -14.4374 -4.38229
head -5.3897 -6.86927 -0.221378
rclavicle -2.22639e-014 1.51076e-014
rhumerus 0.45258 -8.21878 -80.365
rradius 79.3323
rwrist 31.6974
rhand -57.8716 -10.7911
rfingers 7.12502
rthumb -30.1234 -38.3559
lclavicle -2.22639e-014 1.51076e-014
lhumerus -12.241 -9.26584 89.6725
lradius 94.3938
lwrist 40.8847
lhand -24.8865 10.1868
lfingers 7.12502
lthumb 1.62122 40.1604
rfemur -41.3678 1.55635 18.8531
rtibia 56.8022
rfoot -23.0641 -7.71978
rtoes 0.736358
lfemur -35.2611 1.80618 -26.4772
ltibia 45.5108
lfoot -17.532 -1.94501
ltoes 0.925799
